<mxfile host="app.diagrams.net" modified="2023-06-29T09:30:49.206Z" agent="Mozilla/5.0 (Windows NT 10.0; Win64; x64; rv:109.0) Gecko/20100101 Firefox/114.0" etag="my0ysQhv5MeC4vl0Fnan" version="21.5.1" type="github">
  <diagram name="Page-1" id="sj1A13hGBqNmOc4zXh2_">
    <mxGraphModel dx="1455" dy="2755" grid="1" gridSize="10" guides="1" tooltips="1" connect="1" arrows="1" fold="1" page="1" pageScale="1" pageWidth="827" pageHeight="1169" math="0" shadow="0">
      <root>
        <mxCell id="0" />
        <mxCell id="1" parent="0" />
        <mxCell id="OetnsAStxz32LthR_dCU-3" value="" style="group" vertex="1" connectable="0" parent="1">
          <mxGeometry x="-20" width="380" height="100" as="geometry" />
        </mxCell>
        <mxCell id="EO4pnPSAchLOPsAstI3M-14" value="" style="rounded=1;whiteSpace=wrap;html=1;" parent="OetnsAStxz32LthR_dCU-3" vertex="1">
          <mxGeometry width="380" height="100" as="geometry" />
        </mxCell>
        <mxCell id="EO4pnPSAchLOPsAstI3M-6" value="&lt;ol style=&quot;line-height: 200%;&quot;&gt;&lt;li&gt;En tend qu&#39;élève.&lt;/li&gt;&lt;li&gt;Je veut gérer mon emploi du temps. &lt;br&gt;&lt;/li&gt;&lt;li&gt;pour connaitre mes rendez-vous et échéance de tache.&lt;br&gt;&lt;/li&gt;&lt;/ol&gt;" style="text;strokeColor=none;fillColor=none;align=left;verticalAlign=middle;spacingLeft=0;spacingRight=4;overflow=hidden;rotatable=0;points=[[0,0.5],[1,0.5]];portConstraint=eastwest;whiteSpace=wrap;html=1;spacing=2;spacingTop=4;spacingBottom=4;imageAspect=1;" parent="OetnsAStxz32LthR_dCU-3" vertex="1">
          <mxGeometry width="380" height="100" as="geometry" />
        </mxCell>
        <mxCell id="OetnsAStxz32LthR_dCU-14" value="" style="group" vertex="1" connectable="0" parent="1">
          <mxGeometry x="190" y="-140" width="380" height="100" as="geometry" />
        </mxCell>
        <mxCell id="OetnsAStxz32LthR_dCU-15" value="" style="rounded=1;whiteSpace=wrap;html=1;" vertex="1" parent="OetnsAStxz32LthR_dCU-14">
          <mxGeometry width="380" height="100" as="geometry" />
        </mxCell>
        <mxCell id="OetnsAStxz32LthR_dCU-16" value="&lt;ol style=&quot;line-height: 200%;&quot;&gt;&lt;li&gt;En tend que mentor bénévole&lt;br&gt;&lt;/li&gt;&lt;li&gt;Je veut&amp;nbsp; &lt;br&gt;&lt;/li&gt;&lt;li&gt;pour&lt;/li&gt;&lt;/ol&gt;" style="text;strokeColor=none;fillColor=none;align=left;verticalAlign=middle;spacingLeft=0;spacingRight=4;overflow=hidden;rotatable=0;points=[[0,0.5],[1,0.5]];portConstraint=eastwest;whiteSpace=wrap;html=1;spacing=2;spacingTop=4;spacingBottom=4;imageAspect=1;" vertex="1" parent="OetnsAStxz32LthR_dCU-14">
          <mxGeometry width="380" height="100" as="geometry" />
        </mxCell>
        <mxCell id="OetnsAStxz32LthR_dCU-17" value="" style="group" vertex="1" connectable="0" parent="1">
          <mxGeometry x="-240" y="-140" width="380" height="100" as="geometry" />
        </mxCell>
        <mxCell id="OetnsAStxz32LthR_dCU-18" value="" style="rounded=1;whiteSpace=wrap;html=1;" vertex="1" parent="OetnsAStxz32LthR_dCU-17">
          <mxGeometry width="380" height="100" as="geometry" />
        </mxCell>
        <mxCell id="OetnsAStxz32LthR_dCU-19" value="&lt;ol style=&quot;line-height: 200%;&quot;&gt;&lt;li&gt;En tend qu&#39;élève&lt;/li&gt;&lt;li&gt;Je veut&amp;nbsp; &lt;br&gt;&lt;/li&gt;&lt;li&gt;pour&lt;/li&gt;&lt;/ol&gt;" style="text;strokeColor=none;fillColor=none;align=left;verticalAlign=middle;spacingLeft=0;spacingRight=4;overflow=hidden;rotatable=0;points=[[0,0.5],[1,0.5]];portConstraint=eastwest;whiteSpace=wrap;html=1;spacing=2;spacingTop=4;spacingBottom=4;imageAspect=1;" vertex="1" parent="OetnsAStxz32LthR_dCU-17">
          <mxGeometry width="380" height="100" as="geometry" />
        </mxCell>
        <mxCell id="OetnsAStxz32LthR_dCU-24" value="" style="group" vertex="1" connectable="0" parent="1">
          <mxGeometry x="-20" y="160" width="380" height="100" as="geometry" />
        </mxCell>
        <mxCell id="OetnsAStxz32LthR_dCU-12" value="" style="rounded=1;whiteSpace=wrap;html=1;container=0;" vertex="1" parent="OetnsAStxz32LthR_dCU-24">
          <mxGeometry width="380" height="100" as="geometry" />
        </mxCell>
        <mxCell id="OetnsAStxz32LthR_dCU-23" value="&lt;ol style=&quot;line-height: 200%;&quot;&gt;&lt;li&gt;En tend qu&#39;élève.&lt;br&gt;&lt;/li&gt;&lt;li&gt;Je veut&amp;nbsp; pouvoir faire une liste de tache.&lt;br&gt;&lt;/li&gt;&lt;li&gt;pour savoir ce qu&#39;il me reste a faire et ce que j&#39;ai déjà fait.&lt;br&gt;&lt;/li&gt;&lt;/ol&gt;" style="text;strokeColor=none;fillColor=none;align=left;verticalAlign=middle;spacingLeft=0;spacingRight=4;overflow=hidden;rotatable=0;points=[[0,0.5],[1,0.5]];portConstraint=eastwest;whiteSpace=wrap;html=1;spacing=2;spacingTop=4;spacingBottom=4;imageAspect=1;" vertex="1" parent="OetnsAStxz32LthR_dCU-24">
          <mxGeometry width="380" height="100" as="geometry" />
        </mxCell>
        <mxCell id="OetnsAStxz32LthR_dCU-25" value="" style="group" vertex="1" connectable="0" parent="1">
          <mxGeometry x="-20" y="320" width="380" height="100" as="geometry" />
        </mxCell>
        <mxCell id="OetnsAStxz32LthR_dCU-26" value="" style="rounded=1;whiteSpace=wrap;html=1;" vertex="1" parent="OetnsAStxz32LthR_dCU-25">
          <mxGeometry width="380" height="100" as="geometry" />
        </mxCell>
        <mxCell id="OetnsAStxz32LthR_dCU-27" value="&lt;ol style=&quot;line-height: 200%;&quot;&gt;&lt;li&gt;En tend qu&#39;élève&lt;/li&gt;&lt;li&gt;Je veut&amp;nbsp; pouvoir communiquer avec mon mentor ou les autres élèves.&lt;br&gt;&lt;/li&gt;&lt;li&gt;pour facilité mes échanges et mon apprentissage.&lt;br&gt;&lt;/li&gt;&lt;/ol&gt;" style="text;strokeColor=none;fillColor=none;align=left;verticalAlign=middle;spacingLeft=0;spacingRight=4;overflow=hidden;rotatable=0;points=[[0,0.5],[1,0.5]];portConstraint=eastwest;whiteSpace=wrap;html=1;spacing=2;spacingTop=4;spacingBottom=4;imageAspect=1;" vertex="1" parent="OetnsAStxz32LthR_dCU-25">
          <mxGeometry width="380" height="100" as="geometry" />
        </mxCell>
        <mxCell id="OetnsAStxz32LthR_dCU-28" value="" style="group" vertex="1" connectable="0" parent="1">
          <mxGeometry x="-20" y="470" width="380" height="100" as="geometry" />
        </mxCell>
        <mxCell id="OetnsAStxz32LthR_dCU-29" value="" style="rounded=1;whiteSpace=wrap;html=1;" vertex="1" parent="OetnsAStxz32LthR_dCU-28">
          <mxGeometry width="380" height="100" as="geometry" />
        </mxCell>
        <mxCell id="OetnsAStxz32LthR_dCU-30" value="&lt;ol style=&quot;line-height: 200%;&quot;&gt;&lt;li&gt;En tend qu&#39;élève&lt;/li&gt;&lt;li&gt;Je veut&amp;nbsp; avoir un compte dédier sur le site.&lt;br&gt;&lt;/li&gt;&lt;li&gt;pour rassembler l&#39;ensemble de mon activité personnel&lt;br&gt;&lt;/li&gt;&lt;/ol&gt;" style="text;strokeColor=none;fillColor=none;align=left;verticalAlign=middle;spacingLeft=0;spacingRight=4;overflow=hidden;rotatable=0;points=[[0,0.5],[1,0.5]];portConstraint=eastwest;whiteSpace=wrap;html=1;spacing=2;spacingTop=4;spacingBottom=4;imageAspect=1;" vertex="1" parent="OetnsAStxz32LthR_dCU-28">
          <mxGeometry width="380" height="100" as="geometry" />
        </mxCell>
        <mxCell id="OetnsAStxz32LthR_dCU-31" value="" style="group" vertex="1" connectable="0" parent="1">
          <mxGeometry x="-20" y="600" width="380" height="100" as="geometry" />
        </mxCell>
        <mxCell id="OetnsAStxz32LthR_dCU-32" value="" style="rounded=1;whiteSpace=wrap;html=1;" vertex="1" parent="OetnsAStxz32LthR_dCU-31">
          <mxGeometry width="380" height="100" as="geometry" />
        </mxCell>
        <mxCell id="OetnsAStxz32LthR_dCU-33" value="&lt;ol style=&quot;line-height: 200%;&quot;&gt;&lt;li&gt;En tend qu&#39;élève&lt;/li&gt;&lt;li&gt;Je veut&amp;nbsp; un mentor dédier&lt;br&gt;&lt;/li&gt;&lt;li&gt;pour avoir un suivit personnalisé.&lt;br&gt;&lt;/li&gt;&lt;/ol&gt;" style="text;strokeColor=none;fillColor=none;align=left;verticalAlign=middle;spacingLeft=0;spacingRight=4;overflow=hidden;rotatable=0;points=[[0,0.5],[1,0.5]];portConstraint=eastwest;whiteSpace=wrap;html=1;spacing=2;spacingTop=4;spacingBottom=4;imageAspect=1;" vertex="1" parent="OetnsAStxz32LthR_dCU-31">
          <mxGeometry width="380" height="100" as="geometry" />
        </mxCell>
      </root>
    </mxGraphModel>
  </diagram>
</mxfile>
